<?xml version="1.0" standalone="no"?>
<!DOCTYPE svg PUBLIC "-//W3C//DTD SVG 20010904//EN"
 "http://www.w3.org/TR/2001/REC-SVG-20010904/DTD/svg10.dtd">
<svg version="1.0" xmlns="http://www.w3.org/2000/svg"
 width="512.000000pt" height="512.000000pt" viewBox="0 0 512.000000 512.000000"
 preserveAspectRatio="xMidYMid meet">

<g transform="translate(0.000000,512.000000) scale(0.100000,-0.100000)"
fill="white" stroke="none">
<path d="M1049 4611 c-127 -69 -157 -227 -63 -331 46 -51 107 -74 178 -68 194
16 259 269 98 382 -56 40 -156 47 -213 17z"/>
<path d="M3765 4076 c-43 -19 -66 -49 -72 -94 -18 -132 165 -185 223 -64 28
60 0 132 -61 158 -41 17 -51 17 -90 0z"/>
<path d="M595 3516 c-27 -8 -57 -24 -67 -36 -104 -128 230 -429 924 -834 l97
-56 -6 -38 c-3 -20 -8 -40 -12 -43 -3 -3 -51 -23 -106 -44 -191 -72 -295 -118
-295 -129 1 -42 16 -39 209 39 105 43 193 76 194 74 2 -2 9 -47 15 -101 20
-162 80 -322 175 -463 47 -69 195 -220 226 -230 53 -17 753 151 1170 282 l115
35 -155 62 c-1222 492 -2399 1176 -2399 1394 0 48 29 65 123 70 115 5 317 -31
575 -104 12 -3 22 -2 22 3 0 12 -244 74 -405 103 -145 27 -334 35 -400 16z"/>
<path d="M2368 3465 c-143 -27 -305 -98 -413 -180 -25 -19 -51 -35 -58 -35 -7
0 -53 14 -102 30 -96 32 -105 34 -105 22 0 -5 19 -15 43 -22 23 -7 66 -21 95
-32 l53 -20 -67 -70 c-36 -39 -86 -102 -111 -140 -41 -64 -97 -177 -91 -183
24 -23 495 -261 771 -389 360 -167 956 -416 997 -416 9 0 37 7 61 15 43 15 47
19 67 78 31 89 50 179 58 275 4 45 9 82 11 82 14 0 470 -257 478 -270 11 -17
-414 -192 -732 -300 -1287 -439 -2690 -592 -2947 -322 -40 43 -46 105 -15 169
31 66 143 174 266 257 l102 69 -15 29 -15 29 -67 -37 c-262 -146 -470 -318
-532 -441 -37 -71 -35 -156 3 -207 245 -321 1691 -209 3109 241 l178 56 182
-61 c467 -156 808 -234 1033 -235 126 -1 195 21 217 67 39 88 -121 272 -424
488 -71 50 -128 92 -128 93 0 2 57 33 128 70 247 130 412 246 533 372 139 145
162 259 72 349 -62 62 -214 120 -364 139 l-56 7 -6 -39 c-3 -21 -8 -45 -11
-54 -5 -12 4 -19 36 -30 24 -8 64 -34 91 -60 42 -41 47 -50 47 -90 0 -24 -9
-64 -20 -88 -47 -102 -274 -279 -520 -405 l-115 -58 -125 74 c-69 41 -184 107
-256 146 l-132 72 -12 88 c-14 98 -40 190 -77 275 -14 31 -24 59 -21 62 6 6
234 33 351 41 l98 7 -6 26 c-4 14 -8 28 -11 30 -3 3 -313 -29 -434 -46 -34 -4
-37 -2 -69 47 -120 185 -342 342 -573 406 -118 32 -331 42 -450 19z m2170
-1581 c108 -90 174 -175 170 -218 -11 -113 -325 -80 -875 93 -249 79 -240 64
-83 125 150 58 318 129 425 180 l70 33 103 -70 c56 -39 142 -103 190 -143z"/>
<path d="M1496 3435 c-41 -22 -55 -44 -56 -90 0 -77 65 -126 137 -102 82 27
97 135 24 184 -40 27 -65 29 -105 8z"/>
<path d="M4143 3324 c-184 -66 -238 -319 -98 -459 57 -56 116 -80 200 -79 82
1 128 19 187 72 59 53 88 121 87 202 -1 118 -50 199 -149 249 -72 35 -153 41
-227 15z"/>
<path d="M854 2371 c-59 -27 -88 -72 -92 -146 -3 -50 0 -66 20 -95 30 -44 92
-80 138 -80 50 0 113 32 140 70 34 47 38 124 11 177 -39 77 -138 111 -217 74z"/>
<path d="M3624 1251 c-59 -36 -70 -127 -22 -178 76 -81 203 -28 203 85 0 38
-5 48 -37 78 -44 40 -94 45 -144 15z"/>
<path d="M2275 868 c-50 -10 -107 -56 -129 -102 -35 -74 -11 -187 49 -234 93
-73 243 -43 295 58 75 147 -54 314 -215 278z"/>
</g>
</svg>
